# xmcd CD database file
#
# Track frame offsets:
#	150
#	17217
#	32267
#	51382
#	64657
#	78255
#	101017
#	117105
#	135197
#	152345
#	168557
#	185982
#	202867
#	213727
#	238900
#
# Disc length: 3572 seconds
#
# Revision: 4
# Processed by: cddbd v1.5.2PL0 Copyright (c) Steve Scherf et al.
# Submitted via: CDex 1.72
#
DISCID=c70df20f
DTITLE=Strehli. Angela, Band (USA-Soul Shake-bls) - Soul Shake
DYEAR=1900
DGENRE=Blues
TTITLE0=I Wouldn't Treat A Dog
TTITLE1=Your Sweetness
TTITLE2=Be Bop Man
TTITLE3=It Hurts Me Too
TTITLE4=Take It From Me
TTITLE5=Mean Mistreater
TTITLE6=Soul Shake
TTITLE7=20% Alcohol
TTITLE8=Tough Times
TTITLE9=Back In My Arms
TTITLE10=In Spite Of What You Do
TTITLE11=Bigtown Playboy
TTITLE12=Voodoo
TTITLE13=Stranger Blues
TTITLE14=Wang Dang Doodle
EXTD=
EXTT0=
EXTT1=
EXTT2=
EXTT3=
EXTT4=
EXTT5=
EXTT6=
EXTT7=
EXTT8=
EXTT9=
EXTT10=
EXTT11=
EXTT12=
EXTT13=
EXTT14=
PLAYORDER=
